<svg width="41" height="41" viewBox="0 0 41 41" fill="none" xmlns="http://www.w3.org/2000/svg">
<path d="M0 20.5C0 9.17816 9.17816 0 20.5 0V0C31.8218 0 41 9.17816 41 20.5V20.5C41 31.8218 31.8218 41 20.5 41V41C9.17816 41 0 31.8218 0 20.5V20.5Z" fill="#1877F2"/>
<path d="M28.4798 26.4258L29.3887 20.5H23.7031V16.6562C23.7031 15.0347 24.4959 13.4531 27.0424 13.4531H29.6289V8.4082C29.6289 8.4082 27.2826 8.00781 25.0404 8.00781C20.3559 8.00781 17.2969 10.8466 17.2969 15.9836V20.5H12.0918V26.4258H17.2969V40.7518C18.3419 40.9159 19.4109 41 20.5 41C21.5891 41 22.6581 40.9159 23.7031 40.7518V26.4258H28.4798Z" fill="white"/>
</svg>
