<svg width="41" height="41" viewBox="0 0 41 41" fill="none" xmlns="http://www.w3.org/2000/svg">
<path d="M0 20.5C0 9.17816 9.17816 0 20.5 0C31.8218 0 41 9.17816 41 20.5C41 31.8218 31.8218 41 20.5 41C9.17816 41 0 31.8218 0 20.5Z" fill="#FF0000"/>
<path d="M30.9764 15.4375C30.7249 14.4715 29.9839 13.7107 29.043 13.4526C27.3379 12.9833 20.5 12.9833 20.5 12.9833C20.5 12.9833 13.6621 12.9833 11.9568 13.4526C11.016 13.7107 10.275 14.4715 10.0235 15.4375C9.56667 17.1884 9.56667 20.8417 9.56667 20.8417C9.56667 20.8417 9.56667 24.4948 10.0235 26.2458C10.275 27.2119 11.016 27.9726 11.9568 28.2309C13.6621 28.7 20.5 28.7 20.5 28.7C20.5 28.7 27.3379 28.7 29.043 28.2309C29.9839 27.9726 30.7249 27.2119 30.9764 26.2458C31.4333 24.4948 31.4333 20.8417 31.4333 20.8417C31.4333 20.8417 31.4333 17.1884 30.9764 15.4375" fill="white"/>
<path d="M18.45 24.6V17.7667L23.9167 21.1835L18.45 24.6Z" fill="#FF0000"/>
</svg>
